<?xml version="1.0" standalone="no"?>
<!DOCTYPE svg PUBLIC "-//W3C//DTD SVG 1.1//EN" "http://www.w3.org/Graphics/SVG/1.1/DTD/svg11.dtd" >
<svg xmlns="http://www.w3.org/2000/svg">
<metadata>Generated by IcoMoon</metadata>
<defs>
<font id="tinymce" horiz-adv-x="1024">
<font-face units-per-em="1024" ascent="877.7142857142858" descent="-146.28571428571428" />
<missing-glyph horiz-adv-x="1024" />
<glyph unicode="&#x20;" horiz-adv-x="256" d="" />
<glyph unicode="&#xe000;" glyph-name="save" d="M896 864h-896v-1024h1024v896l-128 128zM512 736h128v-256h-128v256zM896-32h-768v768h64v-320h576v320h74.978l53.022-53.018v-714.982z" />
<glyph unicode="&#xe001;" glyph-name="newdocument" d="M903.432 664.57l-142.864 142.862c-31.112 31.112-92.568 56.568-136.568 56.568h-480c-44 0-80-36-80-80v-864c0-44 36-80 80-80h736c44 0 80 36 80 80v608c0 44-25.456 105.458-56.568 136.57zM858.178 619.314c3.13-3.13 6.25-6.974 9.28-11.314h-163.458v163.456c4.34-3.030 8.184-6.15 11.314-9.28l142.864-142.862zM896-80c0-8.672-7.328-16-16-16h-736c-8.672 0-16 7.328-16 16v864c0 8.672 7.328 16 16 16h480c4.832 0 10.254-0.61 16-1.704v-254.296h254.296c1.094-5.746 1.704-11.166 1.704-16v-608z" />
<glyph unicode="&#xe002;" glyph-name="fullpage" d="M1024 271.542v160.916l-159.144 15.914c-8.186 30.042-20.088 58.548-35.21 84.98l104.596 127.838-113.052 113.050-127.836-104.596c-26.434 15.124-54.942 27.026-84.982 35.208l-15.914 159.148h-160.916l-15.914-159.146c-30.042-8.186-58.548-20.086-84.98-35.208l-127.838 104.594-113.050-113.050 104.596-127.836c-15.124-26.432-27.026-54.94-35.21-84.98l-159.146-15.916v-160.916l159.146-15.914c8.186-30.042 20.086-58.548 35.21-84.982l-104.596-127.836 113.048-113.048 127.838 104.596c26.432-15.124 54.94-27.028 84.98-35.21l15.916-159.148h160.916l15.914 159.144c30.042 8.186 58.548 20.088 84.982 35.21l127.836-104.596 113.048 113.048-104.596 127.836c15.124 26.434 27.028 54.942 35.21 84.98l159.148 15.92zM704 288l-128-128h-128l-128 128v128l128 128h128l128-128v-128z" />
<glyph unicode="&#xe003;" glyph-name="alignleft" d="M0 800h1024v-128h-1024zM0 608h640v-128h-640zM0 224h640v-128h-640zM0 416h1024v-128h-1024zM0 32h1024v-128h-1024z" />
<glyph unicode="&#xe004;" glyph-name="aligncenter" d="M0 800h1024v-128h-1024zM192 608h640v-128h-640zM192 224h640v-128h-640zM0 416h1024v-128h-1024zM0 32h1024v-128h-1024z" />
<glyph unicode="&#xe005;" glyph-name="alignright" d="M0 800h1024v-128h-1024zM384 608h640v-128h-640zM384 224h640v-128h-640zM0 416h1024v-128h-1024zM0 32h1024v-128h-1024z" />
<glyph unicode="&#xe006;" glyph-name="alignjustify" d="M0 800h1024v-128h-1024zM0 608h1024v-128h-1024zM0 416h1024v-128h-1024zM0 224h1024v-128h-1024zM0 32h1024v-128h-1024z" />
<glyph unicode="&#xe007;" glyph-name="cut" d="M890.774 154.846c-45.654 45.556-103.728 69.072-157.946 69.072h-29.112l-63.904 64.008 255.62 256.038c63.904 64.010 63.904 192.028 0 256.038l-383.43-384.056-383.432 384.054c-63.904-64.008-63.904-192.028 0-256.038l255.622-256.034-63.906-64.008h-29.114c-54.22 0-112.292-23.518-157.948-69.076-81.622-81.442-92.65-202.484-24.63-270.35 29.97-29.902 70.288-44.494 112.996-44.494 54.216 0 112.29 23.514 157.946 69.072 53.584 53.464 76.742 124 67.084 185.348l65.384 65.488 65.376-65.488c-9.656-61.348 13.506-131.882 67.084-185.348 45.662-45.558 103.732-69.072 157.948-69.072 42.708 0 83.024 14.592 112.994 44.496 68.020 67.866 56.988 188.908-24.632 270.35zM353.024 18.462c-7.698-17.882-19.010-34.346-33.626-48.926-14.636-14.604-31.172-25.918-49.148-33.624-16.132-6.916-32.96-10.568-48.662-10.568-15.146 0-36.612 3.402-52.862 19.612-16.136 16.104-19.52 37.318-19.52 52.288 0 15.542 3.642 32.21 10.526 48.212 7.7 17.884 19.014 34.346 33.626 48.926 14.634 14.606 31.172 25.914 49.15 33.624 16.134 6.914 32.96 10.568 48.664 10.568 15.146 0 36.612-3.4 52.858-19.614 16.134-16.098 19.522-37.316 19.522-52.284 0.002-15.542-3.638-32.216-10.528-48.214zM512.004 197.404c-49.914 0-90.376 40.532-90.376 90.526 0 49.992 40.462 90.52 90.376 90.52s90.372-40.528 90.372-90.52c0-49.998-40.46-90.526-90.372-90.526zM855.272-55.042c-16.248-16.208-37.712-19.612-52.86-19.612-15.704 0-32.53 3.652-48.666 10.568-17.972 7.706-34.508 19.020-49.142 33.624-14.614 14.58-25.926 31.042-33.626 48.926-6.886 15.998-10.526 32.672-10.526 48.212 0 14.966 3.384 36.188 19.52 52.286 16.246 16.208 37.712 19.614 52.86 19.614 15.7 0 32.53-3.654 48.66-10.568 17.978-7.708 34.516-19.018 49.15-33.624 14.61-14.58 25.924-31.042 33.626-48.926 6.884-15.998 10.526-32.67 10.526-48.212-0.002-14.97-3.39-36.186-19.522-52.288z" />
<glyph unicode="&#xe008;" glyph-name="paste" d="M832 544v160c0 17.6-14.4 32-32 32h-224v64c0 35.2-28.8 64-64 64h-128c-35.204 0-64-28.8-64-64v-64h-224c-17.602 0-32-14.4-32-32v-640c0-17.6 14.398-32 32-32h288v-192h448l192 192v512h-192zM384 799.886c0.034 0.038 0.072 0.078 0.114 0.114h127.768c0.042-0.036 0.082-0.076 0.118-0.114v-63.886h-128v63.886zM192 608v64h512v-64h-512zM832-69.49v101.49h101.49l-101.49-101.49zM960 96h-192v-192h-320v576h512v-384z" />
<glyph unicode="&#xe009;" glyph-name="searchreplace" d="M64 864h384v-64h-384zM576 864h384v-64h-384zM952 544h-56v256h-256v-256h-256v256h-256v-256h-56c-39.6 0-72-32.4-72-72v-560c0-39.6 32.4-72 72-72h304c39.6 0 72 32.4 72 72v376h128v-376c0-39.6 32.4-72 72-72h304c39.6 0 72 32.4 72 72v560c0 39.6-32.4 72-72 72zM348-96h-248c-19.8 0-36 14.4-36 32s16.2 32 36 32h248c19.8 0 36-14.4 36-32s-16.2-32-36-32zM544 352h-64c-17.6 0-32 14.4-32 32s14.4 32 32 32h64c17.6 0 32-14.4 32-32s-14.4-32-32-32zM924-96h-248c-19.8 0-36 14.4-36 32s16.2 32 36 32h248c19.8 0 36-14.4 36-32s-16.2-32-36-32z" />
<glyph unicode="&#xe00a;" glyph-name="bullist" d="M384 800h640v-128h-640v128zM384 416h640v-128h-640v128zM384 32h640v-128h-640v128zM0 736c0 70.692 57.308 128 128 128s128-57.308 128-128c0-70.692-57.308-128-128-128s-128 57.308-128 128zM0 352c0 70.692 57.308 128 128 128s128-57.308 128-128c0-70.692-57.308-128-128-128s-128 57.308-128 128zM0-32c0 70.692 57.308 128 128 128s128-57.308 128-128c0-70.692-57.308-128-128-128s-128 57.308-128 128z" />
<glyph unicode="&#xe00b;" glyph-name="numlist" d="M384 32h640v-128h-640zM384 416h640v-128h-640zM384 800h640v-128h-640zM192 864v-256h-64v192h-64v64zM128 338v-50h128v-64h-192v146l128 60v50h-128v64h192v-146zM256 160v-320h-192v64h128v64h-128v64h128v64h-128v64z" />
<glyph unicode="&#xe00c;" glyph-name="indent" d="M0 800h1024v-128h-1024zM384 608h640v-128h-640zM384 416h640v-128h-640zM384 224h640v-128h-640zM0 32h1024v-128h-1024zM0 160v384l256-192z" />
<glyph unicode="&#xe00d;" glyph-name="outdent" d="M0 800h1024v-128h-1024zM384 608h640v-128h-640zM384 416h640v-128h-640zM384 224h640v-128h-640zM0 32h1024v-128h-1024zM256 544v-384l-256 192z" />
<glyph unicode="&#xe00e;" glyph-name="blockquote" d="M225 416c123.712 0 224-100.29 224-224 0-123.712-100.288-224-224-224s-224 100.288-224 224l-1 32c0 247.424 200.576 448 448 448v-128c-85.474 0-165.834-33.286-226.274-93.726-11.634-11.636-22.252-24.016-31.83-37.020 11.438 1.8 23.16 2.746 35.104 2.746zM801 416c123.71 0 224-100.29 224-224 0-123.712-100.29-224-224-224s-224 100.288-224 224l-1 32c0 247.424 200.576 448 448 448v-128c-85.474 0-165.834-33.286-226.274-93.726-11.636-11.636-22.254-24.016-31.832-37.020 11.44 1.8 23.16 2.746 35.106 2.746z" />
<glyph unicode="&#xe00f;" glyph-name="undo" d="M761.862-160c113.726 206.032 132.888 520.306-313.862 509.824v-253.824l-384 384 384 384v-248.372c534.962 13.942 594.57-472.214 313.862-775.628z" />
<glyph unicode="&#xe010;" glyph-name="redo" d="M576 615.628v248.372l384-384-384-384v253.824c-446.75 10.482-427.588-303.792-313.86-509.824-280.712 303.414-221.1 789.57 313.86 775.628z" />
<glyph unicode="&#xe011;" glyph-name="link" d="M320 160c17.6-17.6 47.274-16.726 65.942 1.942l316.118 316.116c18.668 18.668 19.54 48.342 1.94 65.942s-47.274 16.726-65.942-1.942l-316.116-316.116c-18.668-18.668-19.542-48.342-1.942-65.942zM476.888 188.888c4.56-9.050 6.99-19.16 6.99-29.696 0-17.616-6.744-34.060-18.992-46.308l-163.382-163.382c-12.248-12.248-28.694-18.992-46.308-18.992s-34.060 6.744-46.308 18.992l-99.382 99.382c-12.248 12.248-18.992 28.694-18.992 46.308s6.744 34.060 18.992 46.308l163.382 163.382c12.248 12.248 28.694 18.994 46.308 18.994 10.536 0 20.644-2.43 29.696-6.99l65.338 65.338c-27.87 21.41-61.44 32.16-95.034 32.16-39.986 0-79.972-15.166-110.308-45.502l-163.382-163.382c-60.67-60.67-60.67-159.948 0-220.618l99.382-99.382c30.334-30.332 70.32-45.5 110.306-45.5 39.988 0 79.974 15.168 110.308 45.502l163.382 163.382c55.82 55.82 60.238 144.298 13.344 205.344l-65.34-65.34zM978.498 719.116l-99.382 99.382c-30.334 30.336-70.32 45.502-110.308 45.502-39.986 0-79.972-15.166-110.308-45.502l-163.382-163.382c-55.82-55.82-60.238-144.298-13.342-205.342l65.338 65.34c-4.558 9.050-6.988 19.16-6.988 29.694 0 17.616 6.744 34.060 18.992 46.308l163.382 163.382c12.248 12.248 28.694 18.994 46.308 18.994s34.060-6.746 46.308-18.994l99.382-99.382c12.248-12.248 18.992-28.694 18.992-46.308s-6.744-34.060-18.992-46.308l-163.382-163.382c-12.248-12.248-28.694-18.992-46.308-18.992-10.536 0-20.644 2.43-29.696 6.99l-65.338-65.338c27.872-21.41 61.44-32.16 95.034-32.16 39.988 0 79.974 15.168 110.308 45.502l163.382 163.382c60.67 60.666 60.67 159.944 0 220.614z" />
<glyph unicode="&#xe012;" glyph-name="unlink" d="M476.888 188.886c4.56-9.048 6.99-19.158 6.99-29.696 0-17.616-6.744-34.058-18.992-46.308l-163.38-163.38c-12.248-12.248-28.696-18.992-46.308-18.992s-34.060 6.744-46.308 18.992l-99.38 99.38c-12.248 12.25-18.992 28.696-18.992 46.308s6.744 34.060 18.992 46.308l163.38 163.382c12.248 12.246 28.696 18.992 46.308 18.992 10.538 0 20.644-2.43 29.696-6.988l65.338 65.336c-27.87 21.41-61.44 32.16-95.034 32.16-39.986 0-79.972-15.166-110.308-45.502l-163.38-163.382c-60.67-60.67-60.67-159.95 0-220.618l99.38-99.382c30.334-30.332 70.32-45.5 110.306-45.5 39.988 0 79.974 15.168 110.308 45.502l163.38 163.38c55.82 55.82 60.238 144.298 13.344 205.346l-65.34-65.338zM978.496 719.116l-99.38 99.382c-30.334 30.336-70.32 45.502-110.308 45.502-39.986 0-79.97-15.166-110.306-45.502l-163.382-163.382c-55.82-55.82-60.238-144.298-13.342-205.342l65.338 65.34c-4.558 9.050-6.988 19.16-6.988 29.694 0 17.616 6.744 34.060 18.992 46.308l163.382 163.382c12.246 12.248 28.694 18.994 46.306 18.994 17.616 0 34.060-6.746 46.308-18.994l99.38-99.382c12.248-12.248 18.992-28.694 18.992-46.308s-6.744-34.060-18.992-46.308l-163.38-163.382c-12.248-12.248-28.694-18.992-46.308-18.992-10.536 0-20.644 2.43-29.696 6.99l-65.338-65.338c27.872-21.41 61.44-32.16 95.034-32.16 39.988 0 79.974 15.168 110.308 45.504l163.38 163.38c60.672 60.666 60.672 159.944 0 220.614zM233.368 585.376l-191.994 191.994 45.256 45.256 191.994-191.994zM384 864h64v-192h-64zM0 480h192v-64h-192zM790.632 118.624l191.996-191.996-45.256-45.256-191.996 191.996zM576 32h64v-192h-64zM832 288h192v-64h-192z" />
<glyph unicode="&#xe013;" glyph-name="anchor" d="M192 864v-1024l320 320 320-320v1024h-640zM768-5.49l-256 256-256-256v805.49h512v-805.49z" />
<glyph unicode="&#xe014;" glyph-name="image" d="M0 736v-832h1024v832h-1024zM960-32h-896v704h896v-704zM704 512c0 53.019 42.981 96 96 96s96-42.981 96-96c0-53.019-42.981-96-96-96s-96 42.981-96 96zM896 32h-768l192 512 256-320 128 96z" />
<glyph unicode="&#xe015;" glyph-name="media" d="M0 736v-768h1024v768h-1024zM192 32h-128v128h128v-128zM192 288h-128v128h128v-128zM192 544h-128v128h128v-128zM768 32h-512v640h512v-640zM960 32h-128v128h128v-128zM960 288h-128v128h128v-128zM960 544h-128v128h128v-128zM384 544v-384l256 192z" />
<glyph unicode="&#xe016;" glyph-name="help" d="M448 160h128v-128h-128zM704 608c35.346 0 64-28.654 64-64v-192l-192-128h-128v64l192 128v64h-320v128h384zM512 768c-111.118 0-215.584-43.272-294.156-121.844s-121.844-183.038-121.844-294.156c0-111.118 43.272-215.584 121.844-294.156s183.038-121.844 294.156-121.844c111.118 0 215.584 43.272 294.156 121.844s121.844 183.038 121.844 294.156c0 111.118-43.272 215.584-121.844 294.156s-183.038 121.844-294.156 121.844zM512 864v0c282.77 0 512-229.23 512-512s-229.23-512-512-512c-282.77 0-512 229.23-512 512s229.23 512 512 512z" />
<glyph unicode="&#xe017;" glyph-name="code" d="M320 608l-256-256 256-256h128l-256 256 256 256zM704 608h-128l256-256-256-256h128l256 256z" />
<glyph unicode="&#xe018;" glyph-name="inserttime" d="M512 672c-212.076 0-384-171.922-384-384s171.922-384 384-384c212.074 0 384 171.922 384 384s-171.926 384-384 384zM715.644 84.354c-54.392-54.396-126.716-84.354-203.644-84.354s-149.25 29.958-203.646 84.354c-54.396 54.394-84.354 126.718-84.354 203.646s29.958 149.25 84.354 203.646c54.396 54.396 126.718 84.354 203.646 84.354s149.252-29.958 203.642-84.354c54.402-54.396 84.358-126.718 84.358-203.646s-29.958-149.252-84.356-203.646zM325.93 660.138l-42.94 85.878c-98.874-49.536-179.47-130.132-229.006-229.008l85.876-42.94c40.248 80.336 105.732 145.822 186.070 186.070zM884.134 474.070l85.878 42.938c-49.532 98.876-130.126 179.472-229.004 229.008l-42.944-85.878c80.338-40.248 145.824-105.732 186.070-186.068zM512 480h-64v-192c0-10.11 4.7-19.11 12.022-24.972l-0.012-0.016 160-128 39.976 49.976-147.986 118.39v176.622z" />
<glyph unicode="&#xe019;" glyph-name="preview" d="M512 544c-209.368 0-395.244-100.556-512-256 116.756-155.446 302.632-256 512-256s395.244 100.554 512 256c-116.756 155.444-302.632 256-512 256zM448 416c35.346 0 64-28.654 64-64s-28.654-64-64-64-64 28.654-64 64 28.654 64 64 64zM773.616 158.704c-39.648-20.258-81.652-35.862-124.846-46.376-44.488-10.836-90.502-16.328-136.77-16.328-46.266 0-92.282 5.492-136.768 16.324-43.194 10.518-85.198 26.122-124.846 46.376-63.020 32.202-120.222 76.41-167.64 129.298 47.418 52.888 104.62 97.1 167.64 129.298 32.336 16.522 66.242 29.946 101.082 40.040-19.888-30.242-31.468-66.434-31.468-105.336 0-106.040 85.962-192 192-192s192 85.96 192 192c0 38.902-11.582 75.094-31.466 105.34 34.838-10.096 68.744-23.52 101.082-40.042 63.022-32.198 120.218-76.408 167.638-129.298-47.42-52.886-104.618-97.1-167.638-129.296zM860.918 620.278c-108.72 55.554-226.112 83.722-348.918 83.722s-240.198-28.168-348.918-83.722c-58.772-30.032-113.732-67.904-163.082-112.076v-109.206c55.338 58.566 120.694 107.754 192.194 144.29 99.62 50.904 207.218 76.714 319.806 76.714s220.186-25.81 319.804-76.716c71.502-36.536 136.858-85.724 192.196-144.29v109.206c-49.35 44.174-104.308 82.046-163.082 112.078z" />
<glyph unicode="&#xe01a;" glyph-name="forecolor" d="M322.018 32l57.6 192h264.764l57.6-192h113.632l-191.996 640h-223.236l-192-640h113.636zM475.618 544h72.764l57.6-192h-187.964l57.6 192z" />
<glyph unicode="&#xe01b;" glyph-name="table" d="M0 800v-896h1024v896h-1024zM384 224v192h256v-192h-256zM640 160v-192h-256v192h256zM640 672v-192h-256v192h256zM320 672v-192h-256v192h256zM64 416h256v-192h-256v192zM704 416h256v-192h-256v192zM704 480v192h256v-192h-256zM64 160h256v-192h-256v192zM704-32v192h256v-192h-256z" />
<glyph unicode="&#xe01c;" glyph-name="hr" d="M0 416h1024v-128h-1024z" />
<glyph unicode="&#xe01d;" glyph-name="removeformat" d="M0-32h576v-128h-576zM192 864h704v-128h-704zM277.388 32l204.688 784.164 123.85-32.328-196.25-751.836zM929.774-160l-129.774 129.774-129.774-129.774-62.226 62.226 129.774 129.774-129.774 129.774 62.226 62.226 129.774-129.774 129.774 129.774 62.226-62.226-129.774-129.774 129.774-129.774z" />
<glyph unicode="&#xe01e;" glyph-name="sub" d="M768-46v-50h128v-64h-192v146l128 60v50h-128v64h192v-146zM676 608h-136l-188-188-188 188h-136l256-256-256-256h136l188 188 188-188h136l-256 256z" />
<glyph unicode="&#xe01f;" glyph-name="sup" d="M768 658v-50h128v-64h-192v146l128 60v50h-128v64h192v-146zM676 608h-136l-188-188-188 188h-136l256-256-256-256h136l188 188 188-188h136l-256 256z" />
<glyph unicode="&#xe020;" glyph-name="charmap" d="M704-32h256l64 128v-256h-384v214.214c131.112 56.484 224 197.162 224 361.786 0 214.432-157.598 382.266-352 382.266-194.406 0-352-167.832-352-382.266 0-164.624 92.886-305.302 224-361.786v-214.214h-384v256l64-128h256v32.59c-187.63 66.46-320 227.402-320 415.41 0 247.424 229.23 448 512 448s512-200.576 512-448c0-188.008-132.37-348.95-320-415.41v-32.59z" />
<glyph unicode="&#xe021;" glyph-name="emoticons" d="M512 864c-282.77 0-512-229.228-512-512 0-282.77 229.228-512 512-512 282.77 0 512 229.23 512 512 0 282.772-229.23 512-512 512zM512-80c-238.586 0-432 193.412-432 432 0 238.586 193.414 432 432 432 238.59 0 432-193.414 432-432 0-238.588-193.41-432-432-432zM384 544c0-35.346-28.654-64-64-64s-64 28.654-64 64 28.654 64 64 64 64-28.654 64-64zM768 544c0-35.346-28.652-64-64-64s-64 28.654-64 64 28.652 64 64 64 64-28.654 64-64zM512 212c141.074 0 262.688 57.532 318.462 123.192-20.872-171.22-156.288-303.192-318.462-303.192-162.118 0-297.498 132.026-318.444 303.168 55.786-65.646 177.386-123.168 318.444-123.168z" />
<glyph unicode="&#xe022;" glyph-name="print" d="M256 800h512v-128h-512zM960 608h-896c-35.2 0-64-28.8-64-64v-320c0-35.2 28.796-64 64-64h192v-256h512v256h192c35.2 0 64 28.8 64 64v320c0 35.2-28.8 64-64 64zM704-32h-384v320h384v-320zM974.4 512c0-25.626-20.774-46.4-46.398-46.4-25.626 0-46.402 20.774-46.402 46.4s20.776 46.4 46.402 46.4c25.626 0 46.398-20.774 46.398-46.4z" />
<glyph unicode="&#xe023;" glyph-name="fullscreen" d="M1024 864v-384l-138.26 138.26-212-212-107.48 107.48 212 212-138.26 138.26zM245.74 725.74l212-212-107.48-107.48-212 212-138.26-138.26v384h384zM885.74 85.74l138.26 138.26v-384h-384l138.26 138.26-212 212 107.48 107.48zM457.74 190.26l-212-212 138.26-138.26h-384v384l138.26-138.26 212 212z" />
<glyph unicode="&#xe024;" glyph-name="spellchecker" d="M128 608h128v-192h64v384c0 35.2-28.8 64-64 64h-128c-35.2 0-64-28.8-64-64v-384h64v192zM128 800h128v-128h-128v128zM960 800v64h-192c-35.202 0-64-28.8-64-64v-320c0-35.2 28.798-64 64-64h192v64h-192v320h192zM640 704v96c0 35.2-28.8 64-64 64h-192v-448h192c35.2 0 64 28.8 64 64v96c0 35.2-8.8 64-44 64 35.2 0 44 28.8 44 64zM576 480h-128v128h128v-128zM576 672h-128v128h128v-128zM832 288l-416-448-224 288 82 70 142-148 352 302z" />
<glyph unicode="&#xe025;" glyph-name="nonbreaking" d="M448 288h-192v128h192v192h128v-192h192v-128h-192v-192h-128zM1024 224v-384h-1024v384h128v-256h768v256z" />
<glyph unicode="&#xe026;" glyph-name="template" d="M384 672h128v-64h-128zM576 672h128v-64h-128zM896 672v-256h-192v64h128v128h-64v64zM320 480h128v-64h-128zM512 480h128v-64h-128zM192 608v-128h64v-64h-128v256h192v-64zM384 288h128v-64h-128zM576 288h128v-64h-128zM896 288v-256h-192v64h128v128h-64v64zM320 96h128v-64h-128zM512 96h128v-64h-128zM192 224v-128h64v-64h-128v256h192v-64zM960 800h-896v-896h896v896zM1024 864v0-1024h-1024v1024h1024z" />
<glyph unicode="&#xe027;" glyph-name="pagebreak" d="M0 352h128v-64h-128zM192 352h192v-64h-192zM448 352h128v-64h-128zM640 352h192v-64h-192zM896 352h128v-64h-128zM880 864l16-448h-768l16 448h32l16-384h640l16 384zM144-160l-16 384h768l-16-384h-32l-16 320h-640l-16-320z" />
<glyph unicode="&#xe028;" glyph-name="restoredraft" d="M576 800c247.424 0 448-200.576 448-448s-200.576-448-448-448v96c94.024 0 182.418 36.614 248.902 103.098s103.098 154.878 103.098 248.902c0 94.022-36.614 182.418-103.098 248.902s-154.878 103.098-248.902 103.098c-94.022 0-182.418-36.614-248.902-103.098-51.14-51.138-84.582-115.246-97.306-184.902h186.208l-224-256-224 256h164.57c31.060 217.102 217.738 384 443.43 384zM768 416v-128h-256v320h128v-192z" />
<glyph unicode="&#xe02a;" glyph-name="bold" d="M707.88 379.348c37.498 44.542 60.12 102.008 60.12 164.652 0 141.16-114.842 256-256 256h-320v-896h384c141.158 0 256 114.842 256 256 0 92.956-49.798 174.496-124.12 219.348zM384 672h101.5c55.968 0 101.5-57.42 101.5-128s-45.532-128-101.5-128h-101.5v256zM543 32h-159v256h159c58.45 0 106-57.42 106-128s-47.55-128-106-128z" />
<glyph unicode="&#xe02b;" glyph-name="italic" d="M896 800v-64h-128l-320-768h128v-64h-448v64h128l320 768h-128v64z" />
<glyph unicode="&#xe02c;" glyph-name="underline" d="M704 800h128v-416c0-159.058-143.268-288-320-288-176.73 0-320 128.942-320 288v416h128v-416c0-40.166 18.238-78.704 51.354-108.506 36.896-33.204 86.846-51.494 140.646-51.494s103.75 18.29 140.646 51.494c33.116 29.802 51.354 68.34 51.354 108.506v416zM192 32h640v-128h-640z" />
<glyph unicode="&#xe02d;" glyph-name="strikethrough" d="M731.42 346.964c63.92-47.938 100.58-116.086 100.58-186.964s-36.66-139.026-100.58-186.964c-59.358-44.518-137.284-69.036-219.42-69.036-82.138 0-160.062 24.518-219.42 69.036-63.92 47.938-100.58 116.086-100.58 186.964h128c0-69.382 87.926-128 192-128s192 58.618 192 128c0 69.382-87.926 128-192 128-82.138 0-160.062 24.518-219.42 69.036-63.92 47.94-100.58 116.086-100.58 186.964s36.66 139.024 100.58 186.964c59.358 44.518 137.282 69.036 219.42 69.036 82.136 0 160.062-24.518 219.42-69.036 63.92-47.94 100.58-116.086 100.58-186.964h-128c0 69.382-87.926 128-192 128s-192-58.618-192-128c0-69.382 87.926-128 192-128 82.136 0 160.062-24.518 219.42-69.036zM0 352h1024v-64h-1024z" />
<glyph unicode="&#xe02e;" glyph-name="visualchars" d="M384 800h512v-128h-128v-768h-128v768h-128v-768h-128v448c-123.712 0-224 100.288-224 224s100.288 224 224 224z" />
<glyph unicode="&#xe02f;" glyph-name="ltr" d="M448 800h512v-128h-128v-768h-128v768h-128v-768h-128v448c-123.712 0-224 100.288-224 224s100.288 224 224 224zM64 416l256-224-256-224z" />
<glyph unicode="&#xe030;" glyph-name="rtl" d="M256 800h512v-128h-128v-768h-128v768h-128v-768h-128v448c-123.712 0-224 100.288-224 224s100.288 224 224 224zM960-32l-256 224 256 224z" />
<glyph unicode="&#xe031;" glyph-name="copy" d="M832 608h-192v64l-192 192h-448v-768h384v-256h640v576l-192 192zM832 517.49l101.49-101.49h-101.49v101.49zM448 773.49l101.49-101.49h-101.49v101.49zM64 800h320v-192h192v-448h-512v640zM960-96h-512v192h192v448h128v-192h192v-448z" />
<glyph unicode="&#xe032;" glyph-name="resize" d="M768 608h64v-64h-64zM640 480h64v-64h-64zM640 352h64v-64h-64zM640 224h64v-64h-64zM512 352h64v-64h-64zM512 224h64v-64h-64zM384 224h64v-64h-64zM768 480h64v-64h-64zM768 352h64v-64h-64zM768 224h64v-64h-64zM768 96h64v-64h-64zM640 96h64v-64h-64zM512 96h64v-64h-64zM384 96h64v-64h-64zM256 96h64v-64h-64z" />
<glyph unicode="&#xe033;" glyph-name="checkbox" d="M128 320l288-288 480 480-128 128-352-352-160 160z" />
<glyph unicode="&#xe034;" glyph-name="browse" d="M928 736h-416l-32 64h-352l-64-128h896zM904.34 160h74.86l44.8 448h-1024l64-640h484.080c-104.882 37.776-180.080 138.266-180.080 256 0 149.982 122.018 272 272 272 149.98 0 272-122.018 272-272 0-21.678-2.622-43.15-7.66-64zM1002.996-49.75l-198.496 174.692c17.454 28.92 27.5 62.814 27.5 99.058 0 106.040-85.96 192-192 192s-192-85.96-192-192 85.96-192 192-192c36.244 0 70.138 10.046 99.058 27.5l174.692-198.496c22.962-26.678 62.118-28.14 87.006-3.252l5.492 5.492c24.888 24.888 23.426 64.044-3.252 87.006zM640 100c-68.484 0-124 55.516-124 124s55.516 124 124 124 124-55.516 124-124-55.516-124-124-124z" />
<glyph unicode="&#xe035;" glyph-name="pastetext" d="M512 352v-128h32l32 64h64v-256h-48v-64h224v64h-48v256h64l32-64h32v128zM832 544v160c0 17.6-14.4 32-32 32h-224v64c0 35.2-28.8 64-64 64h-128c-35.204 0-64-28.8-64-64v-64h-224c-17.602 0-32-14.4-32-32v-640c0-17.6 14.398-32 32-32h288v-192h640v704h-192zM384 799.886c0.034 0.038 0.072 0.078 0.114 0.114h127.768c0.042-0.036 0.082-0.076 0.118-0.114v-63.886h-128v63.886zM192 608v64h512v-64h-512zM960-96h-512v576h512v-576z" />
<glyph unicode="&#xe600;" glyph-name="gamma" d="M483.2 224l-147.2 336c-9.6 25.6-19.2 44.8-25.6 54.4s-16 12.8-25.6 12.8c-16 0-25.6-3.2-28.8-3.2v70.4c9.6 6.4 25.6 6.4 38.4 9.6 32 0 57.6-6.4 73.6-22.4 6.4-6.4 12.8-16 19.2-25.6 6.4-12.8 12.8-25.6 16-41.6l121.6-291.2 150.4 371.2h92.8l-198.4-470.4v-224h-86.4v224zM0 864v-1024h1024v1024h-1024zM960-96h-896v896h896v-896z" />
<glyph unicode="&#xe601;" glyph-name="orientation" d="M627.2-16h-579.2v396.8h579.2v-396.8zM553.6 310.4h-435.2v-256h435.2v256zM259.2 636.8c176 176 457.6 176 633.6 0s176-457.6 0-633.6c-121.6-121.6-297.6-160-454.4-108.8 121.6-28.8 262.4 9.6 361.6 108.8 150.4 150.4 160 384 22.4 521.6-121.6 121.6-320 128-470.4 19.2l86.4-86.4-294.4-22.4 22.4 294.4 92.8-92.8z" />
<glyph unicode="&#xe602;" glyph-name="invert" d="M892.8-118.4l-89.6 89.6c-70.4-80-172.8-131.2-288-131.2-208 0-380.8 166.4-384 377.6 0 0 0 0 0 0 0 3.2 0 3.2 0 6.4s0 3.2 0 6.4v0c0 0 0 0 0 3.2 0 0 0 3.2 0 3.2 3.2 105.6 48 211.2 105.6 304l-192 192 44.8 44.8 182.4-182.4c0 0 0 0 0 0l569.6-569.6c0 0 0 0 0 0l99.2-99.2-48-44.8zM896 230.4c0 0 0 0 0 0 0 3.2 0 6.4 0 6.4-9.6 316.8-384 627.2-384 627.2s-108.8-89.6-208-220.8l70.4-70.4c6.4 9.6 16 22.4 22.4 32 41.6 51.2 83.2 96 115.2 128v0c32-32 73.6-76.8 115.2-128 108.8-137.6 169.6-265.6 172.8-371.2 0 0 0-3.2 0-3.2v0 0c0-3.2 0-3.2 0-6.4s0-3.2 0-3.2v0 0c0-22.4-3.2-41.6-9.6-64l76.8-76.8c16 41.6 28.8 89.6 28.8 137.6 0 0 0 0 0 0 0 3.2 0 3.2 0 6.4s0 3.2 0 6.4z" />
<glyph unicode="&#xe603;" glyph-name="codesample" d="M199.995 482.002v104.002c0 43.078 34.923 78.001 78.001 78.001h26v104.002h-26c-100.518 0-182.003-81.485-182.003-182.003v-104.002c0-43.078-34.923-78.001-78.001-78.001h-26v-104.002h26c43.078 0 78.001-34.923 78.001-78.001v-104.002c0-100.515 81.485-182.003 182.003-182.003h26v104.002h-26c-43.078 0-78.001 34.923-78.001 78.001v104.002c0 50.931-20.928 96.966-54.646 130.002 33.716 33.036 54.646 79.072 54.646 130.002zM824.005 482.002v104.002c0 43.078-34.923 78.001-78.001 78.001h-26v104.002h26c100.515 0 182.003-81.485 182.003-182.003v-104.002c0-43.078 34.923-78.001 78.001-78.001h26v-104.002h-26c-43.078 0-78.001-34.923-78.001-78.001v-104.002c0-100.515-81.488-182.003-182.003-182.003h-26v104.002h26c43.078 0 78.001 34.923 78.001 78.001v104.002c0 50.931 20.928 96.966 54.646 130.002-33.716 33.036-54.646 79.072-54.646 130.002zM616.002 507.285c0-57.439-46.562-104.002-104.002-104.002s-104.002 46.562-104.002 104.002c0 57.439 46.562 104.002 104.002 104.002s104.002-46.562 104.002-104.002zM512 352.717c-57.439 0-104.002-46.562-104.002-104.002 0-55.845 26-100.115 105.752-103.88-23.719-33.417-59.441-46.612-105.752-50.944v-61.751c0 0 208.003-18.144 208.003 216.577-0.202 57.441-46.56 104.004-104.002 104.004z" />
<glyph unicode="&#xe604;" glyph-name="tablerowprops" d="M0 800v-896h1024v896h-1024zM640 160v-192h-256v192h256zM640 672v-192h-256v192h256zM320 672v-192h-256v192h256zM704 480v192h256v-192h-256zM64 160h256v-192h-256v192zM704-32v192h256v-192h-256z" />
<glyph unicode="&#xe605;" glyph-name="tablecellprops" d="M0 800v-896h1024v896h-1024zM640 160v-192h-256v192h256zM640 672v-192h-256v192h256zM320 672v-192h-256v192h256zM64 416h256v-192h-256v192zM704 416h256v-192h-256v192zM704 480v192h256v-192h-256zM64 160h256v-192h-256v192zM704-32v192h256v-192h-256z" />
<glyph unicode="&#xe606;" glyph-name="table2" d="M0 800v-832h1024v832h-1024zM320 32h-256v192h256v-192zM320 288h-256v192h256v-192zM640 32h-256v192h256v-192zM640 288h-256v192h256v-192zM960 32h-256v192h256v-192zM960 288h-256v192h256v-192zM960 544h-896v192h896v-192z" />
<glyph unicode="&#xe607;" glyph-name="tablemergecells" d="M0 800v-896h1024v896h-1024zM384-32v448h576v-448h-576zM640 672v-192h-256v192h256zM320 672v-192h-256v192h256zM64 416h256v-192h-256v192zM704 480v192h256v-192h-256zM64 160h256v-192h-256v192z" />
<glyph unicode="&#xe608;" glyph-name="tableinsertcolbefore" d="M320 92.8v182.4h-182.4v89.6h182.4v182.4h86.4v-182.4h185.6v-89.6h-185.6v-182.4zM0 800v-896h1024v896h-1024zM640-32h-576v704h576v-704zM960-32h-256v192h256v-192zM960 224h-256v192h256v-192zM960 480h-256v192h256v-192z" />
<glyph unicode="&#xe609;" glyph-name="tableinsertcolafter" d="M704 547.2v-182.4h182.4v-89.6h-182.4v-182.4h-86.4v182.4h-185.6v89.6h185.6v182.4zM0 800v-896h1024v896h-1024zM320-32h-256v192h256v-192zM320 224h-256v192h256v-192zM320 480h-256v192h256v-192zM960-32h-576v704h576v-704z" />
<glyph unicode="&#xe60a;" glyph-name="tableinsertrowbefore" d="M691.2 412.8h-144v-144h-70.4v144h-144v67.2h144v144h70.4v-144h144zM0 800v-896h1024v896h-1024zM320-32h-256v192h256v-192zM640-32h-256v192h256v-192zM960-32h-256v192h256v-192zM960 220.8h-896v451.2h896v-451.2z" />
<glyph unicode="&#xe60b;" glyph-name="tableinsertrowafter" d="M332.8 227.2h144v144h70.4v-144h144v-67.2h-144v-144h-70.4v144h-144zM0 800v-896h1024v896h-1024zM384 672h256v-192h-256v192zM64 672h256v-192h-256v192zM960-32h-896v451.2h896v-451.2zM960 480h-256v192h256v-192z" />
<glyph unicode="&#xe60d;" glyph-name="tablesplitcells" d="M0 800v-896h1024v896h-1024zM384 672h256v-192h-256v192zM320-32h-256v192h256v-192zM320 224h-256v192h256v-192zM320 480h-256v192h256v-192zM960-32h-576v448h576v-448zM960 480h-256v192h256v-192zM864 60.8l-60.8-60.8-131.2 131.2-131.2-131.2-60.8 60.8 131.2 131.2-131.2 131.2 60.8 60.8 131.2-131.2 131.2 131.2 60.8-60.8-131.2-131.2z" />
<glyph unicode="&#xe60e;" glyph-name="tabledelete" d="M0 800h1024v-896h-1024v896zM60.8 672v-704h899.2v704h-899.2zM809.6 115.2l-96-96-204.8 204.8-204.8-204.8-96 96 204.8 204.8-204.8 204.8 96 96 204.8-204.8 204.8 204.8 96-96-204.8-204.8z" />
<glyph unicode="&#xe62a;" glyph-name="tableleftheader" d="M0 800v-832h1024v832h-1024zM640 32h-256v192h256v-192zM640 288h-256v192h256v-192zM640 544h-256v192h256v-192zM960 32h-256v192h256v-192zM960 288h-256v192h256v-192zM960 544h-256v192h256v-192z" />
<glyph unicode="&#xe62b;" glyph-name="tabletopheader" d="M0 800v-832h1024v832h-1024zM320 32h-256v192h256v-192zM320 288h-256v192h256v-192zM640 32h-256v192h256v-192zM640 288h-256v192h256v-192zM960 32h-256v192h256v-192zM960 288h-256v192h256v-192z" />
<glyph unicode="&#xe800;" glyph-name="tabledeleterow" d="M886.4 476.8l-156.8-156.8 160-160-76.8-76.8-160 160-156.8-156.8-76.8 73.6 160 160-163.2 163.2 76.8 76.8 163.2-163.2 156.8 156.8 73.6-76.8zM0 800v-896h1024v896h-1024zM960 480h-22.4l-64-64h86.4v-192h-89.6l64-64h25.6v-192h-896v192h310.4l64 64h-374.4v192h371.2l-64 64h-307.2v192h896v-192z" />
<glyph unicode="&#xe801;" glyph-name="tabledeletecol" d="M320 403.2l64-64v-12.8l-64-64v140.8zM640 326.4l64-64v137.6l-64-64v-9.6zM1024 800v-896h-1024v896h1024zM960 672h-256v-51.2l-12.8 12.8-51.2-51.2v89.6h-256v-89.6l-51.2 51.2-12.8-12.8v51.2h-256v-704h256v118.4l35.2-35.2 28.8 28.8v-115.2h256v115.2l48-48 16 16v-83.2h256v707.2zM672 566.4l-156.8-156.8-163.2 163.2-76.8-76.8 163.2-163.2-156.8-156.8 76.8-76.8 156.8 156.8 160-160 76.8 76.8-160 160 156.8 156.8-76.8 76.8z" />
<glyph unicode="&#xe901;" glyph-name="a11y" d="M960 608v64l-448-128-448 128v-64l320-128v-256l-128-448h64l192 448 192-448h64l-128 448v256zM416 704q0 40 28 68t68 28 68-28 28-68-28-68-68-28-68 28-28 68z" />
<glyph unicode="&#xe902;" glyph-name="toc" d="M0 800h128v-128h-128v128zM192 800h832v-128h-832v128zM192 608h128v-128h-128v128zM384 608h640v-128h-640v128zM384 416h128v-128h-128v128zM576 416h448v-128h-448v128zM0 224h128v-128h-128v128zM192 224h832v-128h-832v128zM192 32h128v-128h-128v128zM384 32h640v-128h-640v128z" />
<glyph unicode="&#xe903;" glyph-name="fill" d="M521.6 819.2l-67.2-67.2-86.4 86.4-86.4-86.4 86.4-86.4-368-368 432-432 518.4 518.4-428.8 435.2zM435.2 38.4l-262.4 262.4 35.2 35.2 576 51.2-348.8-348.8zM953.6 313.6c-6.4-6.4-16-16-28.8-32-28.8-32-41.6-64-41.6-89.6v0 0 0 0 0 0 0c0-16 6.4-35.2 22.4-48 12.8-12.8 32-22.4 48-22.4s35.2 6.4 48 22.4 22.4 32 22.4 48v0 0 0 0 0 0 0c0 25.6-12.8 54.4-41.6 89.6-9.6 16-22.4 25.6-28.8 32v0z" />
<glyph unicode="&#xe904;" glyph-name="borderwidth" d="M0 169.6h1024v-128h-1024v128zM0-64h1024v-64h-1024v64zM0 470.4h1024v-192h-1024v192zM0 832h1024v-256h-1024v256z" />
<glyph unicode="&#xe905;" glyph-name="line" d="M739.2 531.2l-502.4-502.4h-185.6v185.6l502.4 502.4 185.6-185.6zM803.2 592l-185.6 185.6 67.2 67.2c22.4 22.4 54.4 22.4 76.8 0l108.8-108.8c22.4-22.4 22.4-54.4 0-76.8l-67.2-67.2zM41.6-48h940.8v-112h-940.8v112z" />
<glyph unicode="&#xe906;" glyph-name="count" d="M0 384h1024v-64h-1024v64zM304 816v-339.2h-67.2v272h-67.2v67.2zM444.8 598.4v-54.4h134.4v-67.2h-201.6v153.6l134.4 64v54.4h-134.4v67.2h201.6v-153.6zM854.4 816v-339.2h-204.8v67.2h137.6v67.2h-137.6v70.4h137.6v67.2h-137.6v67.2zM115.2 70.4c3.2 57.6 38.4 83.2 108.8 83.2 38.4 0 67.2-9.6 86.4-25.6s25.6-35.2 25.6-70.4v-112c0-25.6 0-28.8 9.6-41.6h-73.6c-3.2 9.6-3.2 9.6-6.4 19.2-22.4-19.2-41.6-25.6-70.4-25.6-54.4 0-89.6 32-89.6 76.8s28.8 70.4 99.2 80l38.4 6.4c16 3.2 22.4 6.4 22.4 16 0 12.8-12.8 22.4-38.4 22.4s-41.6-9.6-44.8-28.8h-67.2zM262.4 19.2c-6.4-3.2-12.8-6.4-25.6-6.4l-25.6-6.4c-25.6-6.4-38.4-16-38.4-28.8 0-16 12.8-25.6 35.2-25.6s41.6 9.6 54.4 32v35.2zM390.4 240h73.6v-112c22.4 16 41.6 22.4 67.2 22.4 64 0 105.6-51.2 105.6-124.8 0-76.8-44.8-134.4-108.8-134.4-32 0-48 9.6-67.2 35.2v-28.8h-70.4v342.4zM460.8 25.6c0-41.6 22.4-70.4 51.2-70.4s51.2 28.8 51.2 70.4c0 44.8-19.2 70.4-51.2 70.4-28.8 0-51.2-28.8-51.2-70.4zM851.2 57.6c-3.2 22.4-19.2 35.2-44.8 35.2-32 0-51.2-25.6-51.2-70.4 0-48 19.2-73.6 51.2-73.6 25.6 0 41.6 12.8 44.8 41.6l70.4-3.2c-9.6-60.8-54.4-96-118.4-96-73.6 0-121.6 51.2-121.6 128 0 80 48 131.2 124.8 131.2 64 0 108.8-35.2 112-96h-67.2z" />
<glyph unicode="&#xe907;" glyph-name="reload" d="M889.68 697.68c-93.608 102.216-228.154 166.32-377.68 166.32-282.77 0-512-229.23-512-512h96c0 229.75 186.25 416 416 416 123.020 0 233.542-53.418 309.696-138.306l-149.696-149.694h352v352l-134.32-134.32zM928 352c0-229.75-186.25-416-416-416-123.020 0-233.542 53.418-309.694 138.306l149.694 149.694h-352v-352l134.32 134.32c93.608-102.216 228.154-166.32 377.68-166.32 282.77 0 512 229.23 512 512h-96z" />
<glyph unicode="&#xe908;" glyph-name="translate" d="M553.6 208l-118.4 118.4c80 89.6 137.6 195.2 172.8 304h137.6v92.8h-326.4v92.8h-92.8v-92.8h-326.4v-92.8h518.4c-32-89.6-80-176-147.2-249.6-44.8 48-80 99.2-108.8 156.8h-92.8c35.2-76.8 80-147.2 137.6-211.2l-236.8-233.6 67.2-67.2 233.6 233.6 144-144c3.2 0 38.4 92.8 38.4 92.8zM816 444.8h-92.8l-208-560h92.8l51.2 140.8h220.8l51.2-140.8h92.8l-208 560zM691.2 118.4l76.8 201.6 76.8-201.6h-153.6z" />
<glyph unicode="&#xe909;" glyph-name="wikicode" d="M207.991 481.994v103.994c0 43.077 34.919 77.997 77.997 77.997h26v103.994h-26c-100.511 0-181.991-81.481-181.991-181.991v-103.994c0-43.077-34.919-77.997-77.997-77.997h-26v-103.993h26c43.077 0 77.997-34.92 77.997-77.997v-103.994c0-100.509 81.48-181.991 181.991-181.991h26v103.993h-26c-43.077 0-77.997 34.919-77.997 77.997v103.995c0 50.927-20.929 96.961-54.643 129.993 33.714 33.032 54.643 79.065 54.643 129.994v0zM823.985 481.994v103.994c0 43.077-34.919 77.997-77.997 77.997h-26v103.994h26c100.509 0 181.991-81.481 181.991-181.991v-103.994c0-43.077 34.919-77.997 77.997-77.997h26v-103.993h-26c-43.077 0-77.997-34.92-77.997-77.997v-103.994c0-100.509-81.481-181.991-181.991-181.991h-26v103.993h26c43.077 0 77.997 34.919 77.997 77.997v103.995c0 50.927 20.928 96.961 54.643 129.993-33.714 33.032-54.643 79.065-54.643 129.994v0zM407.991 481.994v103.994c0 43.077 34.919 77.997 77.997 77.997h26v103.994h-26c-100.511 0-181.991-81.481-181.991-181.991v-103.994c0-43.077-34.919-77.997-77.997-77.997h-26v-103.993h26c43.077 0 77.997-34.92 77.997-77.997v-103.994c0-100.509 81.48-181.991 181.991-181.991h26v103.993h-26c-43.077 0-77.997 34.919-77.997 77.997v103.995c0 50.927-20.929 96.961-54.643 129.993 33.714 33.032 54.643 79.065 54.643 129.994v0zM625.985 481.994v103.994c0 43.077-34.919 77.997-77.997 77.997h-26v103.994h26c100.509 0 181.991-81.481 181.991-181.991v-103.994c0-43.077 34.919-77.997 77.997-77.997h26v-103.993h-26c-43.077 0-77.997-34.92-77.997-77.997v-103.994c0-100.509-81.481-181.991-181.991-181.991h-26v103.993h26c43.077 0 77.997 34.919 77.997 77.997v103.995c0 50.927 20.928 96.961 54.643 129.993-33.714 33.032-54.643 79.065-54.643 129.994v0z" />
<glyph unicode="&#xe90a;" glyph-name="tinymceflag" d="M182.857 717.714q0-41.143-36.571-62.857v-723.429q0-7.429-5.429-12.857t-12.857-5.429h-36.571q-7.429 0-12.857 5.429t-5.429 12.857v723.429q-36.571 21.714-36.571 62.857 0 30.286 21.429 51.714t51.714 21.429 51.714-21.429 21.429-51.714zM1024 681.143v-436q0-14.286-7.143-22t-22.571-15.714q-122.857-66.286-210.857-66.286-34.857 0-70.571 12.571t-62 27.429-66 27.429-81.429 12.571q-109.714 0-265.143-83.429-9.714-5.143-18.857-5.143-14.857 0-25.714 10.857t-10.857 25.714v424q0 18.286 17.714 31.429 12 8 45.143 24.571 134.857 68.571 240.571 68.571 61.143 0 114.286-16.571t125.143-50.286q21.714-10.857 50.286-10.857 30.857 0 67.143 12t62.857 26.857 50.286 26.857 31.143 12q14.857 0 25.714-10.857t10.857-25.714z" />
<glyph unicode="&#xe90b;" glyph-name="home" d="M1024 273.556l-512 397.426-512-397.428v162.038l512 397.426 512-397.428zM896 288v-384h-256v256h-256v-256h-256v384l384 288z" />
<glyph unicode="&#xe90c;" glyph-name="drag" d="M576 800h128v-128h-128v128zM576 544h128v-128h-128v128zM320 544h128v-128h-128v128zM576 288h128v-128h-128v128zM320 288h128v-128h-128v128zM320 32h128v-128h-128v128zM576 32h128v-128h-128v128zM320 800h128v-128h-128v128z" />
<glyph unicode="&#xe911;" glyph-name="books" d="M576.234 574.73l242.712 81.432 203.584-606.784-242.712-81.432zM0-32h256v704h-256v-704zM64 544h128v-64h-128v64zM320-32h256v704h-256v-704zM384 544h128v-64h-128v64z" />
<glyph unicode="&#xe914;" glyph-name="upload" d="M839.432 664.57c27.492-27.492 50.554-78.672 55.552-120.57h-318.984v318.984c41.898-4.998 93.076-28.060 120.568-55.552l142.864-142.862zM512 480v384h-368c-44 0-80-36-80-80v-864c0-44 36-80 80-80h672c44 0 80 36 80 80v560h-384zM576 96v-192h-192v192h-160l256 256 256-256h-160z" />
<glyph unicode="&#xe915;" glyph-name="editimage" d="M768 320v-352h-640v640h352l128 128h-512c-52.8 0-96-43.2-96-96v-704c0-52.8 43.2-96 96-96h704c52.798 0 96 43.2 96 96v512l-128-128zM864 864l-608-608v-160h160l608 608c0 96-64 160-160 160zM416 224l-48 48 480 480 48-48-480-480z" />
<glyph unicode="&#xe91c;" glyph-name="bubble" d="M928 800h-832c-52.8 0-96-43.2-96-96v-512c0-52.8 43.2-96 96-96h160v-256l307.2 256h364.8c52.8 0 96 43.2 96 96v512c0 52.8-43.2 96-96 96zM896 224h-379.142l-196.858-174.714v174.714h-192v448h768v-448z" />
<glyph unicode="&#xe91d;" glyph-name="user" d="M622.826 161.264c-22.11 3.518-22.614 64.314-22.614 64.314s64.968 64.316 79.128 150.802c38.090 0 61.618 91.946 23.522 124.296 1.59 34.054 48.96 267.324-190.862 267.324s-192.45-233.27-190.864-267.324c-38.094-32.35-14.57-124.296 23.522-124.296 14.158-86.486 79.128-150.802 79.128-150.802s-0.504-60.796-22.614-64.314c-71.22-11.332-337.172-128.634-337.172-257.264h896c0 128.63-265.952 245.932-337.174 257.264z" />
<glyph unicode="&#xe926;" glyph-name="lock" d="M592 416h-16v192c0 105.87-86.13 192-192 192h-128c-105.87 0-192-86.13-192-192v-192h-16c-26.4 0-48-21.6-48-48v-480c0-26.4 21.6-48 48-48h544c26.4 0 48 21.6 48 48v480c0 26.4-21.6 48-48 48zM192 608c0 35.29 28.71 64 64 64h128c35.29 0 64-28.71 64-64v-192h-256v192z" />
<glyph unicode="&#xe927;" glyph-name="unlock" d="M768 800c105.87 0 192-86.13 192-192v-192h-128v192c0 35.29-28.71 64-64 64h-128c-35.29 0-64-28.71-64-64v-192h16c26.4 0 48-21.6 48-48v-480c0-26.4-21.6-48-48-48h-544c-26.4 0-48 21.6-48 48v480c0 26.4 21.6 48 48 48h400v192c0 105.87 86.13 192 192 192h128z" />
<glyph unicode="&#xe928;" glyph-name="settings" d="M448 736v16c0 26.4-21.6 48-48 48h-160c-26.4 0-48-21.6-48-48v-16h-192v-128h192v-16c0-26.4 21.6-48 48-48h160c26.4 0 48 21.6 48 48v16h576v128h-576zM256 608v128h128v-128h-128zM832 432c0 26.4-21.6 48-48 48h-160c-26.4 0-48-21.6-48-48v-16h-576v-128h576v-16c0-26.4 21.6-48 48-48h160c26.4 0 48 21.6 48 48v16h192v128h-192v16zM640 288v128h128v-128h-128zM448 112c0 26.4-21.6 48-48 48h-160c-26.4 0-48-21.6-48-48v-16h-192v-128h192v-16c0-26.4 21.6-48 48-48h160c26.4 0 48 21.6 48 48v16h576v128h-576v16zM256-32v128h128v-128h-128z" />
<glyph unicode="&#xe92a;" glyph-name="remove2" d="M192-160h640l64 704h-768zM640 736v128h-256v-128h-320v-192l64 64h768l64-64v192h-320zM576 736h-128v64h128v-64z" />
<glyph unicode="&#xe92d;" glyph-name="menu" d="M384 800h256v-256h-256zM384 480h256v-256h-256zM384 160h256v-256h-256z" />
<glyph unicode="&#xe930;" glyph-name="warning" d="M1009.956-51.76l-437.074 871.112c-16.742 29.766-38.812 44.648-60.882 44.648s-44.14-14.882-60.884-44.648l-437.074-871.112c-33.486-59.532-5-108.24 63.304-108.24h869.308c68.302 0 96.792 48.708 63.302 108.24zM512-32c-35.346 0-64 28.654-64 64 0 35.348 28.654 64 64 64 35.348 0 64-28.652 64-64 0-35.346-28.652-64-64-64zM556 160h-88l-20 256c0 35.346 28.654 64 64 64s64-28.654 64-64l-20-256z" />
<glyph unicode="&#xe931;" glyph-name="question" d="M448 160h128v-128h-128zM704 608c35.346 0 64-28.654 64-64v-192l-192-128h-128v64l192 128v64h-320v128h384zM512 768c-111.118 0-215.584-43.272-294.156-121.844s-121.844-183.038-121.844-294.156c0-111.118 43.272-215.584 121.844-294.156s183.038-121.844 294.156-121.844c111.118 0 215.584 43.272 294.156 121.844s121.844 183.038 121.844 294.156c0 111.118-43.272 215.584-121.844 294.156s-183.038 121.844-294.156 121.844zM512 864v0c282.77 0 512-229.23 512-512s-229.23-512-512-512c-282.77 0-512 229.23-512 512s229.23 512 512 512z" />
<glyph unicode="&#xe932;" glyph-name="pluscircle" d="M512 864c-282.77 0-512-229.23-512-512s229.23-512 512-512 512 229.23 512 512-229.23 512-512 512zM512-32c-212.078 0-384 171.922-384 384s171.922 384 384 384c212.078 0 384-171.922 384-384s-171.922-384-384-384zM768 288h-192v-192h-128v192h-192v128h192v192h128v-192h192z" />
<glyph unicode="&#xe933;" glyph-name="info" d="M512 864c-282.77 0-512-229.23-512-512s229.23-512 512-512 512 229.23 512 512-229.23 512-512 512zM448 672h128v-128h-128v128zM640 32h-256v64h64v256h-64v64h192v-320h64v-64z" />
<glyph unicode="&#xe934;" glyph-name="notice" d="M1024 128l-288 736h-448l-288-288v-448l288-288h448l288 288v448l-288 288zM576 32h-128v128h128v-128zM576 288h-128v384h128v-384z" />
<glyph unicode="&#xe935;" glyph-name="drop" d="M864.626 390.838c-65.754 183.44-205.11 348.15-352.626 473.162-147.516-125.012-286.87-289.722-352.626-473.162-40.664-113.436-44.682-236.562 12.584-345.4 65.846-125.14 198.632-205.438 340.042-205.438s274.196 80.298 340.040 205.44c57.27 108.838 53.25 231.962 12.586 345.398zM738.764 105.044c-43.802-83.252-132.812-137.044-226.764-137.044-55.12 0-108.524 18.536-152.112 50.652 13.242-1.724 26.632-2.652 40.112-2.652 117.426 0 228.668 67.214 283.402 171.242 44.878 85.292 40.978 173.848 23.882 244.338 14.558-28.15 26.906-56.198 36.848-83.932 22.606-63.062 40.024-156.34-5.368-242.604z" />
<glyph unicode="&#xe939;" glyph-name="minus" d="M0 448v-192c0-17.672 14.328-32 32-32h960c17.672 0 32 14.328 32 32v192c0 17.672-14.328 32-32 32h-960c-17.672 0-32-14.328-32-32z" />
<glyph unicode="&#xe93a;" glyph-name="plus" d="M992 480h-352v352c0 17.672-14.328 32-32 32h-192c-17.672 0-32-14.328-32-32v-352h-352c-17.672 0-32-14.328-32-32v-192c0-17.672 14.328-32 32-32h352v-352c0-17.672 14.328-32 32-32h192c17.672 0 32 14.328 32 32v352h352c17.672 0 32 14.328 32 32v192c0 17.672-14.328 32-32 32z" />
<glyph unicode="&#xe93b;" glyph-name="arrowup" d="M0 224l192-192 320 320 320-320 192 192-511.998 512z" />
<glyph unicode="&#xe93c;" glyph-name="arrowright" d="M384 864l-192-192 320-320-320-320 192-192 512 512z" />
<glyph unicode="&#xe93d;" glyph-name="arrowdown" d="M1024 480l-192 192-320-320-320 320-192-192 512-511.998z" />
<glyph unicode="&#xe93f;" glyph-name="arrowup2" d="M768 224l-256 256-256-256z" />
<glyph unicode="&#xe940;" glyph-name="arrowdown2" d="M256 480l256-256 256 256z" />
<glyph unicode="&#xe941;" glyph-name="menu2" d="M256 608l256-256 256 256zM255.996 288.004l256-256 256 256z" />
<glyph unicode="&#xe961;" glyph-name="newtab" d="M704 288l128 128v-512h-768v768h512l-128-128h-256v-512h512zM960 800v-352l-130.744 130.744-354.746-354.744h-90.51v90.512l354.744 354.744-130.744 130.744z" />
<glyph unicode="&#xeaa8;" glyph-name="rotateleft" d="M607.998 735.986c-212.070 0-383.986-171.916-383.986-383.986h-191.994l246.848-246.848 246.848 246.848h-191.994c0 151.478 122.798 274.276 274.276 274.276 151.48 0 274.276-122.798 274.276-274.276 0-151.48-122.796-274.276-274.276-274.276v-109.71c212.070 0 383.986 171.916 383.986 383.986s-171.916 383.986-383.986 383.986z" />
<glyph unicode="&#xeaa9;" glyph-name="rotateright" d="M416.002 735.986c212.070 0 383.986-171.916 383.986-383.986h191.994l-246.848-246.848-246.848 246.848h191.994c0 151.478-122.798 274.276-274.276 274.276-151.48 0-274.276-122.798-274.276-274.276 0-151.48 122.796-274.276 274.276-274.276v-109.71c-212.070 0-383.986 171.916-383.986 383.986s171.916 383.986 383.986 383.986z" />
<glyph unicode="&#xeaaa;" glyph-name="flipv" d="M0 480h1024v384zM1024-96v384h-1024z" />
<glyph unicode="&#xeaac;" glyph-name="fliph" d="M576 864v-1024h384zM0-160h384v1024z" />
<glyph unicode="&#xeb35;" glyph-name="zoomin" d="M992.262-7.396l-242.552 206.294c-25.074 22.566-51.89 32.926-73.552 31.926 57.256 67.068 91.842 154.078 91.842 249.176 0 212.078-171.922 384-384 384-212.076 0-384-171.922-384-384s171.922-384 384-384c95.098 0 182.108 34.586 249.176 91.844-1-21.662 9.36-48.478 31.926-73.552l206.294-242.552c35.322-39.246 93.022-42.554 128.22-7.356s31.892 92.898-7.354 128.22zM384 224c-141.384 0-256 114.616-256 256s114.616 256 256 256 256-114.616 256-256-114.614-256-256-256zM448 672h-128v-128h-128v-128h128v-128h128v128h128v128h-128z" />
<glyph unicode="&#xeb36;" glyph-name="zoomout" d="M992.262-7.396l-242.552 206.294c-25.074 22.566-51.89 32.926-73.552 31.926 57.256 67.068 91.842 154.078 91.842 249.176 0 212.078-171.922 384-384 384-212.076 0-384-171.922-384-384s171.922-384 384-384c95.098 0 182.108 34.586 249.176 91.844-1-21.662 9.36-48.478 31.926-73.552l206.294-242.552c35.322-39.246 93.022-42.554 128.22-7.356s31.892 92.898-7.354 128.22zM384 224c-141.384 0-256 114.616-256 256s114.616 256 256 256 256-114.616 256-256-114.614-256-256-256zM192 544h384v-128h-384z" />
<glyph unicode="&#xeba7;" glyph-name="sharpen" d="M768 736h-512l-256-256 512-576 512 576-256 256zM512 85.334v2.666h-2.37l-14.222 16h16.592v16h-30.814l-14.222 16h45.036v16h-59.258l-14.222 16h73.48v16h-87.704l-14.222 16h101.926v16h-116.148l-14.222 16h130.37v16h-144.592l-14.222 16h158.814v16h-173.038l-14.222 16h187.26v16h-201.482l-14.222 16h215.704v16h-229.926l-14.222 16h244.148v16h-258.372l-14.222 16h272.594v16h-286.816l-14.222 16h301.038v16h-315.26l-14.222 16h329.482v16h-343.706l-7.344 8.262 139.072 139.072h211.978v-3.334h215.314l16-16h-231.314v-16h247.314l16-16h-263.314v-16h279.314l16-16h-295.314v-16h311.314l16-16h-327.314v-16h343.312l7.738-7.738-351.050-394.928z" />
<glyph unicode="&#xec6a;" glyph-name="options" d="M64 672h896v-192h-896zM64 416h896v-192h-896zM64 160h896v-192h-896z" />
<glyph unicode="&#xeccc;" glyph-name="sun" d="M512 32c35.346 0 64-28.654 64-64v-64c0-35.346-28.654-64-64-64s-64 28.654-64 64v64c0 35.346 28.654 64 64 64zM512 672c-35.346 0-64 28.654-64 64v64c0 35.346 28.654 64 64 64s64-28.654 64-64v-64c0-35.346-28.654-64-64-64zM960 416c35.346 0 64-28.654 64-64s-28.654-64-64-64h-64c-35.348 0-64 28.654-64 64s28.652 64 64 64h64zM192 352c0-35.346-28.654-64-64-64h-64c-35.346 0-64 28.654-64 64s28.654 64 64 64h64c35.346 0 64-28.654 64-64zM828.784 125.726l45.256-45.258c24.992-24.99 24.992-65.516 0-90.508-24.994-24.992-65.518-24.992-90.51 0l-45.256 45.256c-24.992 24.99-24.992 65.516 0 90.51 24.994 24.992 65.518 24.992 90.51 0zM195.216 578.274l-45.256 45.256c-24.994 24.994-24.994 65.516 0 90.51s65.516 24.994 90.51 0l45.256-45.256c24.994-24.994 24.994-65.516 0-90.51s-65.516-24.994-90.51 0zM828.784 578.274c-24.992-24.992-65.516-24.992-90.51 0-24.992 24.994-24.992 65.516 0 90.51l45.256 45.254c24.992 24.994 65.516 24.994 90.51 0 24.992-24.994 24.992-65.516 0-90.51l-45.256-45.254zM195.216 125.726c24.992 24.992 65.518 24.992 90.508 0 24.994-24.994 24.994-65.52 0-90.51l-45.254-45.256c-24.994-24.992-65.516-24.992-90.51 0s-24.994 65.518 0 90.508l45.256 45.258zM512 608c-141.384 0-256-114.616-256-256 0-141.382 114.616-256 256-256 141.382 0 256 114.618 256 256 0 141.384-114.616 256-256 256zM512 192c-88.366 0-160 71.634-160 160s71.634 160 160 160 160-71.634 160-160-71.634-160-160-160z" />
<glyph unicode="&#xeccd;" glyph-name="moon" d="M715.812 799.52c-60.25 34.784-124.618 55.904-189.572 64.48 122.936-160.082 144.768-384.762 37.574-570.42-107.2-185.67-312.688-279.112-512.788-252.68 39.898-51.958 90.376-97.146 150.628-131.934 245.908-141.974 560.37-57.72 702.344 188.198 141.988 245.924 57.732 560.372-188.186 702.356z" />
<glyph unicode="&#xecd4;" glyph-name="contrast" d="M512 864c-282.77 0-512-229.23-512-512s229.23-512 512-512 512 229.23 512 512-229.23 512-512 512zM128 352c0 212.078 171.922 384 384 384v-768c-212.078 0-384 171.922-384 384z" />
<glyph unicode="&#xed6a;" glyph-name="remove22" d="M893.254 642.746l-90.508 90.508-290.746-290.744-290.746 290.744-90.508-90.506 290.746-290.748-290.746-290.746 90.508-90.508 290.746 290.746 290.746-290.746 90.508 90.51-290.744 290.744z" />
<glyph unicode="&#xedc0;" glyph-name="arrowleft" d="M672-160l192 192-320 320 320 320-192 192-512-512z" />
<glyph unicode="&#xedf9;" glyph-name="resize2" d="M0 800v-384c0-35.346 28.654-64 64-64s64 28.654 64 64v229.488l677.488-677.488h-229.488c-35.346 0-64-28.652-64-64 0-35.346 28.654-64 64-64h384c35.346 0 64 28.654 64 64v384c0 35.348-28.654 64-64 64s-64-28.652-64-64v-229.488l-677.488 677.488h229.488c35.346 0 64 28.654 64 64s-28.652 64-64 64h-384c-35.346 0-64-28.654-64-64z" />
<glyph unicode="&#xee78;" glyph-name="crop" d="M832 608l192 192-64 64-192-192h-448v192h-128v-192h-192v-128h192v-512h512v-192h128v192h192v128h-192v448zM320 544h320l-320-320v320zM384 160l320 320v-320h-320z" />
</font>
</defs>
</svg>
